<svg id="Layer_1" enable-background="new 0 0 128 128" height="512" viewBox="0 0 128 128" width="512" xmlns="http://www.w3.org/2000/svg"><g><path d="m118.3 8.7h-52.7c3.3 0 6 2.7 6 6v98.6c0 3.3-2.7 6-6 6h52.7c4.4 0 8-3.6 8-8v-94.6c0-4.4-3.6-8-8-8z" fill="#393444"/><path d="m65.6 8.7h-57.8c-3.3 0-6 2.7-6 6v98.6c0 3.3 2.7 6 6 6h57.8c3.3 0 6-2.7 6-6v-98.6c0-3.3-2.7-6-6-6zm-33.5 25.2c0 2.2-1.8 4-4 4h-12.3c-2.2 0-4-1.8-4-4v-11.2c0-2.2 1.8-4 4-4h12.4c2.2 0 4 1.8 4 4v11.2z" fill="#635a70"/><path d="m17.5 81.8c0-4.6 8.4-16.3 8.4-16.3s8.4 11.6 8.4 16.3c0 4.6-3.8 8.4-8.4 8.4s-8.4-3.8-8.4-8.4z" fill="#fff04a"/><path d="m36.7 65.5c-1.9 2.7-3.7 5.5-5.4 8.4 1.7 2.9 3 6 3 7.9 0 2.5-1.1 4.9-3 6.5 3.6 3 8.9 2.5 11.8-1.1 1.3-1.5 1.9-3.4 1.9-5.4.1-4.7-8.3-16.3-8.3-16.3z" fill="#d261e8"/><path d="m47.4 65.5c-1.9 2.7-3.7 5.5-5.4 8.4 1.6 2.9 3 6 3 7.9 0 2.5-1.1 4.9-3 6.5 3.6 3 8.9 2.5 11.8-1.1 1.3-1.5 1.9-3.4 1.9-5.4.1-4.7-8.3-16.3-8.3-16.3z" fill="#19cffc"/><path d="m71.6 18.7h44.7v90.6h-44.7z" fill="#fff5f5"/></g><path d="m46 64.5c-.1.1-2 2.7-3.9 6-1.8-3-3.6-5.4-3.9-6-.7-.9-2.1-.9-2.8 0-.1.1-2 2.7-3.9 6-1.8-3-3.6-5.4-3.9-6-.6-.8-1.7-.9-2.4-.4-.8.6-.9 1.6-.4 2.4 1.9 2.6 3.6 5.3 5.2 8.1 1.6 2.9 2.8 5.6 2.8 7.1-.1 3.7-3.1 6.6-6.8 6.5-3.6-.1-6.5-3-6.5-6.5 0-.7.3-2.4 2.4-6.3.5-.8.1-1.9-.7-2.4s-1.9-.1-2.4.7c-1.9 3.5-2.8 6.1-2.8 8 0 5.6 4.5 10.1 10.1 10.1 1.9 0 3.8-.5 5.4-1.5 3.3 2.1 7.4 2.1 10.7 0 4.7 3 11 1.5 14-3.2 1-1.6 1.5-3.5 1.5-5.4 0-5.1-7.8-16-8.7-17.3-.9-.9-2.3-.9-3 .1zm-12 23.4c1.3-1.8 2-3.9 2.1-6.1 0-2-1.2-5-2.8-7.9 1.2-2 2.4-4 3.4-5.3 3 4.4 6.6 10.7 6.6 13.2 0 3.6-2.9 6.6-6.5 6.7-1-.1-1.9-.3-2.8-.6zm13.4.5c-.9 0-1.8-.2-2.6-.6 1.3-1.8 2-3.9 2-6.1 0-2-1.2-5-2.8-7.9 1.2-2 2.4-4 3.4-5.3 3 4.4 6.6 10.7 6.6 13.2 0 3.7-2.9 6.7-6.6 6.7zm70.6-4.8v5.9c0 1-.8 1.8-1.8 1.8s-1.8-.8-1.8-1.8v-5.9c0-1 .8-1.8 1.8-1.8s1.8.9 1.8 1.8zm.3-76.6h-110.5c-4.3 0-7.8 3.4-7.8 7.7v98.6c0 4.3 3.5 7.7 7.8 7.8h110.5c5.4 0 9.7-4.4 9.8-9.8v-94.6c-.1-5.4-4.5-9.7-9.8-9.7zm-114.8 106.3v-98.6c0-2.3 1.9-4.2 4.3-4.3h57.8c2.3 0 4.2 1.9 4.3 4.3v98.6c0 2.3-1.9 4.2-4.3 4.3h-57.8c-2.4-.1-4.3-2-4.3-4.3zm121-2c0 3.5-2.8 6.2-6.3 6.3h-46.1c.8-1.2 1.3-2.7 1.3-4.3v-2.3h42.9c1 0 1.8-.8 1.8-1.8v-9.2c0-1-.8-1.8-1.8-1.8s-1.8.8-1.8 1.8v7.4h-41.2v-86.9h41.2v52.5c0 1 .8 1.8 1.8 1.8s1.7-.8 1.7-1.8v-54.3c0-1-.8-1.8-1.8-1.8h-42.9v-2.3c0-1.5-.4-2.9-1.3-4.3h46.2c3.5 0 6.2 2.8 6.3 6.3zm-90.6-77.4v-11.2c0-3.2-2.6-5.7-5.8-5.8h-12.3c-3.2 0-5.7 2.6-5.8 5.8v11.2c0 3.2 2.6 5.7 5.8 5.8h12.4c3.1-.1 5.7-2.7 5.7-5.8zm-20.4 0v-11.2c0-1.2 1-2.2 2.3-2.3h12.4c1.2 0 2.2 1 2.3 2.3v11.2c0 1.2-1 2.2-2.3 2.3h-12.4c-1.3-.1-2.3-1.1-2.3-2.3z"/></svg>